<svg xmlns="http://www.w3.org/2000/svg" width="24" height="24" fill="none" viewBox="0 0 24 24"><path fill="#78c257" d="M17.5 9.001h-10a.5.5 0 0 0-.5.5v8c0 1.207.86 2.216 2 2.45v2.55c0 .826.673 1.5 1.5 1.5.826 0 1.5-.674 1.5-1.5V20h1v2.5c0 .826.672 1.5 1.5 1.5.826 0 1.5-.674 1.5-1.5v-2.55c1.14-.233 1.999-1.242 1.999-2.45v-8a.5.5 0 0 0-.5-.5M15.116 2.664 15.96.698a.5.5 0 1 0-.919-.393l-.843 1.967a5.5 5.5 0 0 0-1.697-.27c-.592 0-1.162.096-1.697.27L9.96.305a.5.5 0 1 0-.918.393l.843 1.966A5.5 5.5 0 0 0 7 7.501a.5.5 0 0 0 .5.5h10a.5.5 0 0 0 .499-.5 5.5 5.5 0 0 0-2.883-4.837M10.5 6.001a.5.5 0 1 1 0-1 .5.5 0 0 1 0 1m4 0a.5.5 0 1 1 0-1 .5.5 0 0 1 0 1M20.499 9.001c-.827 0-1.5.673-1.5 1.5v5c0 .827.673 1.5 1.5 1.5s1.5-.673 1.5-1.5v-5c0-.827-.673-1.5-1.5-1.5M4.5 9.001c-.827 0-1.5.673-1.5 1.5v5c0 .827.673 1.5 1.5 1.5S6 16.328 6 15.5v-5c0-.827-.673-1.5-1.5-1.5"/></svg>