<svg xmlns="http://www.w3.org/2000/svg" width="18" height="18" fill="none" viewBox="0 0 18 18"><g stroke="#fff" stroke-linecap="round" stroke-linejoin="round" stroke-width="1.5" clip-path="url(#clip0_14674_21071)"><path d="M7.313 3.375H3.938C3.627 3.375 3.375 3.627 3.375 3.938V7.313C3.375 7.623 3.627 7.875 3.938 7.875H7.313C7.623 7.875 7.875 7.623 7.875 7.313V3.938C7.875 3.627 7.623 3.375 7.313 3.375ZM7.313 10.125H3.938C3.627 10.125 3.375 10.377 3.375 10.688V14.063C3.375 14.373 3.627 14.625 3.938 14.625H7.313C7.623 14.625 7.875 14.373 7.875 14.063V10.688C7.875 10.377 7.623 10.125 7.313 10.125ZM14.063 3.375H10.688C10.377 3.375 10.125 3.627 10.125 3.938V7.313C10.125 7.623 10.377 7.875 10.688 7.875H14.063C14.373 7.875 14.625 7.623 14.625 7.313V3.938C14.625 3.627 14.373 3.375 14.063 3.375ZM10.125 10.125V12.375M10.125 14.625H12.375V10.125M12.375 11.25H14.625M14.625 13.5V14.625"/></g><defs><clipPath id="clip0_14674_21071"><path fill="#fff" d="M0 0H18V18H0z"/></clipPath></defs></svg>