<svg xmlns="http://www.w3.org/2000/svg" width="16" height="16" fill="none" viewBox="0 0 16 16"><path fill="url(#a)" d="M14 4.5h-1V4a1.5 1.5 0 0 0-1.5-1.5h-9A1.5 1.5 0 0 0 1 4v6a1.5 1.5 0 0 0 1.5 1.5h7v.5a1.5 1.5 0 0 0 1.5 1.5h3a1.5 1.5 0 0 0 1.5-1.5V6A1.5 1.5 0 0 0 14 4.5m.5 7.5a.5.5 0 0 1-.5.5h-3a.5.5 0 0 1-.5-.5V6a.5.5 0 0 1 .5-.5h3a.5.5 0 0 1 .5.5zm-6 1a.5.5 0 0 1-.5.5H5.5a.5.5 0 0 1 0-1H8a.5.5 0 0 1 .5.5m5-6a.5.5 0 0 1-.5.5h-1a.5.5 0 0 1 0-1h1a.5.5 0 0 1 .5.5"/><defs><linearGradient id="a" x1="8.25" x2="8.25" y1="2.5" y2="13.5" gradientUnits="userSpaceOnUse"><stop stop-color="#5695fd"/><stop offset="1" stop-color="#1554ff"/></linearGradient></defs></svg>