<svg xmlns="http://www.w3.org/2000/svg" width="16" height="16" fill="none" viewBox="0 0 16 16"><g clip-path="url(#a)"><path fill="url(#b)" fill-rule="evenodd" d="M6.984.829A3.2 3.2 0 0 1 8 .667a3.2 3.2 0 0 1 1.016.162l3.907 1.305c.47.157.844.567.886 1.108.043.55.088 1.608.059 3.55l.009.355v.014q0 .487-.075.957c-.279 2.567-1.46 4.34-2.681 5.48-.61.568-1.228.98-1.751 1.257-.5.266-.953.43-1.243.469a1 1 0 0 1-.119.01h-.016a1 1 0 0 1-.119-.01c-.29-.039-.743-.203-1.243-.469a8.3 8.3 0 0 1-1.75-1.258c-1.22-1.14-2.403-2.912-2.682-5.48a6 6 0 0 1-.075-.956v-.014l.01-.355c-.03-1.942.015-3 .058-3.55.043-.541.416-.951.886-1.108zm3.86 5.46a.537.537 0 0 0-.85-.655l-2.31 3.003L6.505 7.46a.537.537 0 0 0-.76.759l1.61 1.61a.537.537 0 0 0 .805-.053z" clip-rule="evenodd"/></g><defs><linearGradient id="b" x1="8" x2="8" y1=".667" y2="15.333" gradientUnits="userSpaceOnUse"><stop stop-color="#5695fd"/><stop offset="1" stop-color="#1554ff"/></linearGradient><clipPath id="a"><path fill="#fff" d="M0 0h16v16H0z"/></clipPath></defs></svg>